<?xml version="1.0" standalone="no"?>
<!DOCTYPE svg PUBLIC "-//W3C//DTD SVG 20010904//EN"
 "http://www.w3.org/TR/2001/REC-SVG-20010904/DTD/svg10.dtd">
<svg version="1.0" xmlns="http://www.w3.org/2000/svg"
 width="248.000000pt" height="235.000000pt" viewBox="0 0 248.000000 235.000000"
 preserveAspectRatio="xMidYMid meet" style="background-color:white">

<g transform="translate(0.000000,235.000000) scale(0.100000,-0.100000)"
fill="#000000" stroke="none">
<path d="M1185 2286 c-4 -25 -5 -51 -2 -58 3 -7 6 -1 6 14 1 15 5 38 11 52 8
23 15 26 55 26 50 0 50 -1 60 -72 6 -44 9 -48 38 -53 84 -15 89 -14 115 40 13
28 25 51 26 52 2 2 24 -4 50 -13 l47 -16 -7 -58 -6 -58 50 -26 50 -25 39 46
39 46 42 -28 c23 -15 42 -29 42 -31 0 -2 -11 -28 -25 -56 l-25 -52 42 -37 43
-37 30 19 c69 46 74 46 106 9 16 -19 29 -38 29 -41 0 -3 -17 -25 -37 -48 l-36
-43 24 -45 c13 -25 27 -46 30 -49 4 -2 26 3 49 11 23 8 50 15 59 15 16 0 55
-76 46 -90 -3 -5 -25 -21 -50 -37 -41 -26 -45 -31 -39 -58 16 -72 19 -75 83
-75 66 0 71 -5 71 -70 0 -38 0 -38 -57 -52 l-58 -14 0 -54 0 -55 58 -18 c55
-18 57 -20 57 -53 0 -63 -12 -73 -79 -69 l-59 4 -16 -49 c-9 -27 -16 -51 -16
-53 0 -2 25 -21 55 -41 l55 -36 -22 -45 c-12 -25 -25 -45 -29 -45 -3 0 -26 7
-49 15 -61 22 -72 19 -103 -27 l-29 -40 29 -32 c69 -75 67 -68 25 -109 l-37
-36 -53 35 -52 35 -40 -31 c-41 -32 -42 -36 -23 -86 2 -7 -30 -2 -82 12 -47
12 -119 28 -161 35 l-77 12 61 28 c206 93 360 280 408 497 24 108 15 281 -19
380 -36 102 -96 198 -176 278 -83 82 -166 134 -275 171 -74 26 -93 28 -226 28
-136 0 -150 -2 -231 -31 -176 -63 -323 -193 -405 -358 -58 -119 -77 -210 -71
-346 8 -175 64 -313 185 -449 57 -65 184 -155 245 -173 20 -6 37 -14 37 -18 0
-4 -26 -10 -59 -14 -32 -4 -103 -17 -157 -31 -55 -13 -100 -22 -102 -20 -1 1
3 15 10 30 12 26 10 30 -26 61 -35 30 -42 33 -60 21 -12 -7 -37 -23 -58 -35
l-36 -22 -32 40 -32 41 41 44 c23 25 41 47 41 50 0 4 -11 26 -25 50 l-26 43
-62 -19 c-34 -10 -63 -19 -64 -19 -1 0 -11 21 -23 47 -23 51 -26 45 48 90 29
17 41 31 38 40 -4 8 -9 27 -12 41 -11 45 -23 52 -85 52 l-58 0 -6 34 c-12 59
-5 69 58 84 l58 14 -3 56 -3 56 -52 16 c-28 8 -55 18 -58 22 -4 3 -3 27 0 52
l7 46 63 0 63 0 16 52 c8 29 14 53 13 54 -101 61 -105 69 -71 136 l14 27 56
-19 c64 -22 62 -23 100 46 l17 32 -36 43 c-20 23 -37 45 -37 48 0 3 14 21 31
40 34 36 38 36 105 -9 l31 -20 43 38 43 38 -27 53 c-15 29 -26 54 -24 55 2 1
22 14 45 29 l42 26 38 -46 39 -45 52 22 c48 21 52 25 48 49 -3 14 -7 41 -8 60
-3 33 -1 34 46 48 26 8 49 13 50 11 1 -2 12 -26 25 -55 23 -50 24 -51 60 -46
64 10 79 22 20 16 l-56 -5 -17 47 c-10 25 -24 49 -32 52 -7 3 -36 -3 -64 -12
-47 -16 -51 -19 -46 -43 16 -83 14 -92 -31 -112 l-42 -19 -40 46 -39 46 -48
-30 c-53 -33 -54 -36 -28 -104 l18 -47 -30 -25 c-16 -15 -33 -26 -39 -27 -5 0
-30 13 -55 30 l-44 29 -27 -25 c-14 -14 -32 -36 -39 -49 -11 -21 -9 -28 24
-68 l37 -45 -23 -36 c-26 -41 -28 -41 -93 -21 -27 8 -51 12 -53 10 -2 -2 -15
-27 -28 -55 l-23 -50 49 -33 c52 -34 57 -45 39 -96 -11 -30 -12 -31 -74 -31
l-62 0 -7 -37 c-12 -77 -11 -80 52 -100 l57 -20 3 -44 3 -44 -64 -18 -64 -19
8 -46 c4 -26 8 -53 8 -59 1 -9 21 -13 65 -13 63 0 64 -1 75 -31 18 -52 13 -63
-39 -94 -27 -17 -50 -34 -50 -38 0 -15 42 -107 50 -107 4 0 29 7 56 15 66 20
66 20 92 -21 l23 -35 -41 -46 c-22 -25 -40 -51 -40 -57 0 -7 17 -29 39 -50
l38 -37 49 30 c26 17 53 31 58 31 6 0 24 -12 40 -26 28 -25 29 -26 13 -58 -12
-27 -27 -37 -79 -55 -81 -29 -166 -65 -248 -107 -102 -52 -99 -46 -57 -97 20
-25 37 -50 37 -55 0 -5 -18 -17 -40 -27 -22 -10 -40 -20 -40 -22 0 -8 194
-213 201 -213 9 0 149 86 162 99 6 6 -1 27 -18 56 -15 26 -25 48 -23 50 19 19
164 73 278 103 247 66 535 63 785 -9 90 -26 255 -92 255 -102 0 -4 -12 -25
-26 -47 -15 -22 -25 -42 -23 -44 2 -2 44 4 93 13 l89 17 44 61 44 61 45 -25
45 -25 -73 -77 c-41 -42 -83 -87 -95 -100 l-21 -23 -72 47 c-40 25 -74 44 -77
42 -2 -3 31 -26 73 -53 l77 -48 99 103 c54 56 98 106 98 110 0 5 -12 14 -27
20 -16 7 -36 18 -47 26 -17 13 -17 16 13 60 17 26 28 51 25 57 -9 15 -213 111
-296 139 -54 19 -69 29 -81 55 -15 31 -15 32 16 62 l32 31 55 -35 c30 -18 57
-34 61 -34 4 0 23 20 44 45 l37 46 -41 44 c-23 25 -41 48 -41 52 0 14 39 73
48 73 5 0 31 -7 58 -15 27 -8 54 -15 60 -15 6 0 20 21 30 47 11 27 20 51 22
54 1 3 -22 22 -52 42 l-55 37 13 37 13 38 66 3 65 3 10 57 c5 31 8 60 6 63 -2
3 -31 14 -64 23 -60 17 -60 17 -60 55 0 46 9 54 75 74 54 16 54 16 39 105 l-5
32 -63 0 c-61 0 -64 1 -70 28 -4 15 -9 34 -12 43 -3 11 11 27 46 49 27 18 50
36 50 42 0 5 -9 31 -21 58 l-21 48 -46 -14 c-68 -20 -78 -18 -101 22 l-22 37
40 47 41 48 -43 46 -42 47 -45 -31 c-25 -16 -48 -30 -52 -30 -4 0 -22 13 -39
28 l-32 29 24 57 c20 49 21 59 9 66 -8 5 -31 20 -50 33 l-35 25 -41 -46 -41
-46 -42 19 -42 19 6 61 7 62 -49 14 c-26 8 -52 14 -56 14 -4 0 -20 -22 -35
-50 -16 -28 -34 -49 -42 -48 -83 9 -88 12 -95 56 -12 79 -11 77 -75 77 l-59 0
-6 -44z m218 -282 c416 -94 655 -539 500 -934 -61 -156 -192 -299 -341 -373
l-85 -42 -216 0 c-250 -1 -273 4 -396 86 -138 93 -236 225 -286 389 -30 97
-33 271 -5 370 61 226 237 414 452 484 119 39 260 46 377 20z m-37 -1364 c276
-23 547 -100 761 -217 l52 -29 -75 -107 c-42 -60 -79 -107 -83 -105 -3 2 -53
27 -111 55 -127 63 -248 104 -395 134 -144 30 -400 32 -545 4 -130 -24 -285
-76 -408 -136 -57 -27 -107 -49 -111 -47 -5 2 -45 47 -90 101 l-82 97 133 64
c226 109 454 170 688 186 63 4 120 8 126 9 6 0 69 -4 140 -9z m-965 -414 c39
-49 50 -56 99 -66 125 -26 122 -20 39 -74 l-73 -47 -93 94 c-51 52 -93 98 -93
103 0 8 55 42 71 43 4 1 26 -23 50 -53z"/>
<path d="M1428 1951 c-12 -16 -20 -18 -58 -10 -25 4 -68 8 -97 9 -46 0 -51 -2
-46 -20 3 -11 1 -20 -5 -20 -5 0 -13 12 -16 26 -5 19 -10 24 -18 16 -6 -6 -7
-16 -2 -24 5 -7 7 -22 5 -33 -2 -16 0 -18 10 -7 18 17 27 15 32 -5 3 -10 5 -1
6 20 1 27 5 37 17 37 13 0 15 -7 10 -35 -4 -22 -3 -35 4 -35 5 0 10 16 10 36
0 31 3 35 23 32 12 -2 22 -10 22 -18 0 -9 -7 -14 -17 -12 -23 4 -23 -11 0 -31
20 -18 43 -24 25 -6 -7 7 -7 17 1 35 11 25 40 31 66 14 12 -8 9 -10 -11 -10
-29 0 -46 -27 -29 -44 7 -7 10 -3 10 12 0 14 6 22 16 22 12 0 15 -7 12 -25 -3
-14 -2 -25 2 -25 4 0 10 14 14 30 3 17 10 30 16 30 13 0 13 -26 0 -51 -7 -11
-7 -19 -1 -19 5 0 12 14 16 30 4 17 13 30 20 30 20 0 27 -17 10 -24 -21 -8
-19 -28 4 -48 19 -16 21 -15 40 18 l20 34 -39 20 c-26 13 -40 27 -40 40 0 27
-17 33 -32 11z m22 -17 c0 -8 -4 -12 -10 -9 -5 3 -10 10 -10 16 0 5 5 9 10 9
6 0 10 -7 10 -16z m60 -75 c-11 -19 -22 -24 -32 -13 -8 7 25 42 35 37 4 -2 2
-13 -3 -24z"/>
<path d="M1132 1925 c-1 -22 5 -51 14 -65 l15 -25 -7 25 c-4 14 -11 43 -15 65
l-6 40 -1 -40z"/>
<path d="M977 1889 c-53 -27 -56 -31 -42 -46 9 -8 15 -22 13 -30 -4 -17 -23
-13 -23 4 0 17 -23 38 -32 30 -9 -9 18 -58 35 -65 8 -3 18 1 22 8 4 7 13 9 19
6 17 -11 13 3 -9 31 -11 14 -17 29 -14 34 10 16 21 9 34 -21 7 -16 16 -30 21
-30 5 0 2 14 -6 31 -9 17 -15 32 -13 34 2 1 13 8 26 14 20 11 26 10 38 -6 7
-10 14 -24 14 -30 0 -7 4 -13 9 -13 4 0 3 18 -2 40 -6 22 -16 40 -22 40 -5 -1
-36 -14 -68 -31z"/>
<path d="M1005 1870 c-8 -14 3 -30 21 -30 8 0 14 9 14 20 0 21 -24 28 -35 10z"/>
<path d="M1598 1837 c16 -19 6 -41 -14 -33 -9 3 -14 -1 -14 -12 0 -22 9 -34
38 -50 20 -11 25 -10 41 9 11 14 23 19 30 14 9 -5 5 -15 -15 -36 -15 -16 -22
-29 -16 -29 7 0 12 4 12 10 0 5 10 14 21 21 18 9 25 7 42 -10 12 -11 18 -23
14 -27 -3 -3 -13 1 -23 10 -12 13 -19 14 -30 5 -19 -15 1 -40 24 -32 14 5 14
2 -3 -17 l-20 -23 20 11 c50 28 55 37 56 97 0 27 -30 48 -47 34 -10 -8 -24 -2
-56 24 -24 18 -50 38 -58 42 -13 8 -13 6 -2 -8z m53 -43 c11 -13 9 -14 -13 -9
-19 5 -29 2 -37 -12 -7 -12 -10 -13 -11 -4 0 13 27 40 41 41 4 0 12 -7 20 -16z
m-11 -29 c0 -8 -4 -15 -9 -15 -13 0 -22 16 -14 24 11 11 23 6 23 -9z m108 -23
c4 -26 -6 -28 -24 -4 -18 24 -17 34 4 30 9 -2 18 -13 20 -26z"/>
<path d="M827 1789 c-20 -17 -42 -39 -47 -49 -8 -15 -6 -17 10 -13 11 3 20 0
20 -6 0 -6 -5 -11 -11 -11 -5 0 -7 -4 -4 -10 3 -5 18 -10 33 -9 15 0 21 3 15
6 -14 5 -18 33 -5 33 4 0 13 -5 20 -12 7 -7 12 -8 12 -4 0 4 -10 16 -22 25
-23 20 -19 51 7 51 18 0 20 -17 3 -22 -8 -3 -4 -10 10 -17 13 -7 27 -9 30 -5
4 4 1 9 -6 11 -10 4 -10 8 -1 19 9 11 8 14 -4 14 -9 0 -17 7 -19 15 -2 12 -11
9 -41 -16z m3 -50 c0 -6 -4 -7 -10 -4 -5 3 -10 11 -10 16 0 6 5 7 10 4 6 -3
10 -11 10 -16z"/>
<path d="M1175 1793 c-59 -8 -161 -54 -216 -97 -214 -168 -238 -488 -52 -687
183 -195 489 -201 677 -13 99 99 141 214 134 359 -4 81 -10 104 -41 170 -92
194 -286 297 -502 268z m47 -127 l-3 -113 -39 -13 c-75 -25 -150 -114 -150
-178 0 -12 -5 -22 -11 -22 -8 0 -8 -4 -2 -12 6 -7 11 -20 11 -28 1 -8 5 -30 8
-47 4 -21 2 -33 -5 -33 -6 0 -10 -3 -9 -7 1 -5 -30 -39 -71 -78 -69 -66 -73
-69 -87 -51 -12 18 -11 23 9 45 19 22 19 23 1 8 -28 -23 -30 -23 -48 23 -47
117 -38 272 21 383 68 127 222 232 348 236 l30 1 -3 -114z m234 68 c154 -76
254 -238 254 -411 0 -28 -4 -54 -8 -57 -5 -3 -32 13 -60 35 -29 21 -62 39 -74
39 -15 0 -6 -8 28 -25 27 -14 62 -35 78 -48 24 -20 28 -28 22 -51 -6 -25 -9
-27 -24 -14 -24 20 -94 60 -98 55 -2 -2 20 -17 49 -33 28 -16 53 -37 55 -47 2
-9 -11 -42 -29 -74 l-32 -56 -83 85 -83 86 17 53 c9 30 20 57 25 60 5 3 2 9
-7 12 -9 4 -16 16 -16 27 0 60 -79 150 -150 171 l-40 12 0 115 0 115 51 -6
c28 -4 84 -23 125 -43z m-184 -259 c10 -22 13 -23 20 -10 14 25 28 17 28 -15
0 -45 -33 -74 -79 -66 -20 3 -42 13 -48 23 -7 9 -13 12 -13 7 0 -6 5 -15 10
-20 8 -8 2 -11 -19 -12 -30 -1 -60 22 -47 36 4 4 12 -1 17 -11 6 -9 15 -17 22
-17 9 0 9 2 0 8 -6 4 -15 20 -19 36 -6 26 -5 29 15 23 14 -3 21 -1 21 10 0 28
25 6 31 -28 4 -21 7 -25 8 -12 1 28 22 73 33 73 5 0 14 -11 20 -25z m88 -35
c0 -11 7 -20 15 -20 8 0 12 -6 9 -14 -6 -17 -44 -33 -65 -29 -14 4 -14 8 4 43
21 43 37 52 37 20z m-147 -92 c-11 -46 -60 -76 -78 -48 -8 13 15 47 40 59 33
16 44 13 38 -11z m53 -36 l-7 -58 28 1 c27 0 28 -2 28 -50 0 -44 -3 -50 -20
-48 -10 1 -27 -3 -36 -8 -12 -6 -20 -5 -24 1 -4 6 -18 9 -33 8 -24 -3 -26 -1
-26 44 -1 50 11 64 45 53 22 -7 24 5 7 51 -14 39 -5 64 23 64 20 0 21 -3 15
-58z m68 37 c31 -24 35 -59 7 -59 -21 0 -61 44 -61 66 0 20 23 17 54 -7z
m-224 -194 c32 -34 119 -59 175 -51 23 4 63 20 88 36 l45 29 69 -72 c87 -91
89 -95 67 -113 -91 -73 -171 -103 -274 -105 -149 -2 -240 25 -319 96 l-42 38
78 82 c43 45 81 83 84 84 3 0 16 -10 29 -24z"/>
<path d="M853 1333 c9 -2 23 -2 30 0 6 3 -1 5 -18 5 -16 0 -22 -2 -12 -5z"/>
<path d="M911 1329 c8 -4 1 -13 -20 -23 -17 -9 -31 -19 -31 -21 0 -3 23 6 50
20 28 14 50 27 50 29 0 1 -14 3 -30 3 -17 0 -26 -4 -19 -8z"/>
<path d="M980 1285 c-14 -8 -20 -14 -14 -15 5 0 19 7 30 15 24 18 16 19 -16 0z"/>
<path d="M930 1260 c-9 -6 -10 -10 -3 -10 6 0 15 5 18 10 8 12 4 12 -15 0z"/>
<path d="M863 1224 c-24 -14 -43 -27 -43 -30 0 -6 67 33 85 48 17 15 1 8 -42
-18z"/>
<path d="M945 1183 c-31 -16 -45 -28 -35 -31 7 -3 16 0 18 7 2 6 9 11 15 11 7
0 23 9 37 20 33 26 25 24 -35 -7z"/>
<path d="M1518 1333 c7 -3 16 -2 19 1 4 3 -2 6 -13 5 -11 0 -14 -3 -6 -6z"/>
<path d="M1658 1333 c7 -3 16 -2 19 1 4 3 -2 6 -13 5 -11 0 -14 -3 -6 -6z"/>
<path d="M1530 1276 c0 -2 7 -7 16 -10 8 -3 12 -2 9 4 -6 10 -25 14 -25 6z"/>
<path d="M1525 1180 c3 -5 11 -10 16 -10 6 0 7 5 4 10 -3 6 -11 10 -16 10 -6
0 -7 -4 -4 -10z"/>
<path d="M1560 1166 c0 -3 9 -10 20 -16 11 -6 20 -8 20 -6 0 3 -9 10 -20 16
-11 6 -20 8 -20 6z"/>
<path d="M1610 1131 c0 -10 30 -24 37 -17 3 2 -5 9 -16 16 -12 6 -21 7 -21 1z"/>
<path d="M1366 1045 c4 -8 10 -12 15 -9 11 6 2 24 -11 24 -5 0 -7 -7 -4 -15z"/>
<path d="M1340 1030 c6 -11 13 -20 16 -20 2 0 0 9 -6 20 -6 11 -13 20 -16 20
-2 0 0 -9 6 -20z"/>
<path d="M1140 1005 c-7 -9 -8 -15 -2 -15 5 0 12 7 16 15 3 8 4 15 2 15 -2 0
-9 -7 -16 -15z"/>
<path d="M1270 979 c0 -5 5 -7 10 -4 6 3 10 8 10 11 0 2 -4 4 -10 4 -5 0 -10
-5 -10 -11z"/>
<path d="M1237 960 c3 -11 7 -20 9 -20 2 0 4 9 4 20 0 11 -4 20 -9 20 -5 0 -7
-9 -4 -20z"/>
<path d="M1275 940 c3 -5 11 -10 16 -10 6 0 7 5 4 10 -3 6 -11 10 -16 10 -6 0
-7 -4 -4 -10z"/>
<path d="M676 1664 c-20 -20 -20 -41 -1 -52 14 -7 14 -11 1 -37 -9 -16 -23
-62 -32 -101 -13 -56 -23 -75 -41 -85 -23 -13 -31 -29 -13 -29 6 0 10 4 10 9
0 5 7 11 15 14 23 9 17 -101 -6 -114 -10 -5 -16 -17 -14 -26 2 -10 4 -20 4
-23 1 -3 5 2 11 10 6 9 5 17 -3 23 -8 6 -8 7 3 5 8 -3 19 -22 24 -44 5 -21 10
-40 11 -42 1 -1 15 3 31 9 16 7 36 11 44 10 13 -3 12 0 -1 15 -9 11 -14 24
-12 31 3 9 -4 10 -26 3 -16 -4 -32 -6 -35 -2 -14 14 -3 22 29 22 19 0 35 4 35
9 0 6 -16 7 -35 4 -30 -5 -35 -3 -35 14 0 16 5 19 29 15 25 -3 29 -1 33 27 4
29 3 31 -29 31 -46 0 -42 20 5 21 l37 1 -37 10 c-21 6 -38 15 -38 20 0 7 15 8
38 5 25 -5 32 -3 22 3 -8 5 -23 10 -32 10 -12 0 -18 8 -18 25 0 30 16 33 23 4
6 -24 30 -21 35 4 2 11 -6 21 -22 27 -38 14 -32 22 12 16 l37 -6 -33 12 c-26
9 -31 15 -26 32 8 27 26 47 24 26 -6 -44 14 -54 41 -22 15 17 15 20 -4 31 -15
10 -17 15 -8 24 9 9 14 8 21 -3 8 -13 10 -12 10 3 0 10 -8 17 -20 17 -10 0
-24 -8 -29 -17 -6 -10 -11 -13 -11 -7 0 7 8 22 18 34 18 22 19 22 48 5 l29
-18 -30 29 c-35 34 -67 40 -89 18z m34 -24 c-11 -20 -22 -25 -33 -14 -11 11 5
34 24 34 17 0 18 -3 9 -20z m20 -79 c0 -6 -4 -13 -10 -16 -5 -3 -10 1 -10 9 0
9 5 16 10 16 6 0 10 -4 10 -9z m-42 -233 c3 -17 -13 -19 -35 -5 -21 13 -15 29
9 25 13 -2 24 -11 26 -20z m-3 -119 c0 -7 -8 -15 -17 -17 -18 -3 -25 18 -11
32 10 10 28 1 28 -15z"/>
<path d="M1800 1627 c-62 -33 -71 -39 -67 -44 3 -2 18 2 35 11 28 15 30 14 41
-10 15 -34 14 -42 -3 -19 -19 27 -45 13 -44 -24 l1 -30 30 15 c25 13 31 14 38
2 13 -20 11 -28 -5 -22 -8 3 -24 1 -35 -6 -17 -8 -19 -15 -11 -29 5 -10 6 -22
2 -26 -4 -4 10 -4 31 0 47 9 51 -10 5 -25 l-33 -10 38 5 c27 3 37 0 34 -8 -2
-7 -13 -13 -24 -15 -13 -2 -23 -13 -26 -28 -4 -22 -1 -24 30 -24 23 0 33 -4
30 -12 -2 -7 -18 -13 -35 -13 -18 0 -32 -3 -32 -7 0 -5 14 -8 30 -8 27 0 30
-3 29 -32 0 -29 -1 -30 -9 -12 -12 31 -30 39 -47 21 -22 -21 -8 -59 20 -55 12
1 28 -1 35 -5 8 -6 12 -1 12 15 0 40 12 67 31 73 25 8 25 35 0 35 -15 0 -20
10 -26 50 -4 28 -13 74 -21 103 -10 40 -11 59 -2 84 9 25 9 35 -1 47 -16 19
-19 19 -51 3z m44 -16 c4 -5 3 -17 -1 -27 -6 -16 -7 -16 -20 2 -7 10 -13 21
-13 26 0 11 27 10 34 -1z m-46 -60 c3 -8 -1 -12 -9 -9 -7 2 -15 10 -17 17 -3
8 1 12 9 9 7 -2 15 -10 17 -17z m43 -84 c-12 -12 -43 -5 -49 12 -3 8 0 11 7 7
6 -4 11 -2 11 3 0 8 7 7 20 -1 11 -7 16 -16 11 -21z m19 -102 c0 -8 -9 -15
-20 -15 -11 0 -20 7 -20 15 0 8 9 15 20 15 11 0 20 -7 20 -15z m50 -39 c0 -2
-7 -6 -15 -10 -8 -3 -15 -1 -15 4 0 6 7 10 15 10 8 0 15 -2 15 -4z m-76 -64
c2 -4 1 -14 -4 -22 -7 -11 -12 -12 -21 -3 -6 6 -8 16 -5 22 8 13 23 14 30 3z"/>
<path d="M605 1480 c-9 -10 -15 -26 -12 -35 10 -23 26 -18 20 6 -4 15 0 27 12
35 11 8 14 14 8 14 -5 0 -18 -9 -28 -20z"/>
<path d="M1774 1185 c26 -20 85 -30 98 -17 7 7 -1 10 -25 10 -19 0 -44 5 -55
11 -29 16 -41 13 -18 -4z"/>
<path d="M698 1117 c-32 -13 -33 -18 -12 -58 14 -28 14 -32 -1 -48 -14 -17
-14 -19 1 -31 13 -12 17 -11 24 1 8 11 13 9 27 -11 9 -14 40 -49 67 -78 47
-50 51 -52 58 -32 4 12 12 18 18 15 7 -4 7 -13 0 -26 -6 -11 -8 -24 -5 -29 9
-15 27 0 21 16 -3 8 1 17 9 20 20 8 19 24 -1 24 -10 0 -14 6 -10 15 8 23 -10
18 -27 -7 -11 -17 -18 -20 -26 -12 -8 8 -6 15 9 29 11 10 20 23 20 29 0 6 -9
0 -20 -14 -15 -20 -23 -23 -36 -14 -30 18 -30 38 0 30 23 -6 26 -3 26 18 0 14
-5 28 -11 31 -6 4 -9 0 -7 -11 2 -10 -1 -19 -7 -19 -5 0 -16 -4 -24 -9 -9 -6
-19 -2 -32 15 -24 31 -24 47 -1 26 23 -21 38 -21 46 -1 10 26 7 29 -8 8 -12
-15 -17 -16 -27 -7 -10 10 -9 17 7 34 19 22 19 22 -3 10 -12 -6 -25 -16 -28
-21 -7 -11 -25 -4 -25 9 0 4 11 13 25 19 14 6 25 16 25 22 0 6 -11 3 -25 -6
-24 -16 -45 -12 -45 8 0 5 6 8 14 5 20 -8 36 15 29 41 -6 24 -6 24 -45 9z m32
-20 c0 -7 -9 -13 -20 -14 -22 -2 -27 12 -7 20 21 9 27 8 27 -6z m-20 -97 c0
-5 -4 -10 -10 -10 -5 0 -10 5 -10 10 0 6 5 10 10 10 6 0 10 -4 10 -10z"/>
<path d="M1750 1089 c-13 -23 -14 -22 18 -38 21 -11 21 -13 7 -41 -18 -35 -22
-36 -53 -14 -13 9 -26 14 -28 11 -3 -3 8 -13 24 -23 l30 -17 -21 -29 c-23 -31
-35 -31 -18 1 16 29 -16 47 -42 24 -16 -16 -16 -17 5 -40 29 -31 14 -43 -17
-13 -14 13 -25 19 -25 13 0 -5 9 -18 20 -28 19 -17 19 -18 -4 -36 -32 -25 -44
-24 -21 1 17 18 17 22 4 35 -10 11 -25 13 -47 9 -31 -6 -32 -8 -16 -25 16 -18
40 -17 29 1 -3 5 -1 11 5 15 13 8 26 -25 13 -34 -12 -8 -13 -41 -1 -41 18 0
132 116 166 170 19 30 41 59 49 63 20 12 16 25 -17 42 -38 20 -47 19 -60 -6z
m30 0 c0 -6 7 -9 15 -5 10 4 15 -1 15 -14 0 -23 -4 -24 -31 -10 -20 11 -27 40
-9 40 6 0 10 -5 10 -11z m-86 -144 c-4 -8 -8 -15 -10 -15 -2 0 -4 7 -4 15 0 8
4 15 10 15 5 0 7 -7 4 -15z"/>
<path d="M1725 1030 c-8 -13 14 -42 26 -34 5 3 9 14 9 25 0 20 -24 26 -35 9z"/>
<path d="M1010 804 c0 -10 -6 -14 -15 -10 -8 3 -15 1 -15 -4 0 -6 5 -10 11
-10 6 0 8 -7 5 -16 -4 -11 -1 -14 12 -12 9 1 23 -1 31 -6 10 -7 12 -4 6 13 -4
12 -2 21 4 21 6 0 2 9 -9 20 -24 24 -30 25 -30 4z"/>
<path d="M1490 805 c0 -8 -8 -15 -17 -15 -13 0 -15 -2 -5 -8 7 -5 10 -16 6
-28 -6 -15 -4 -17 6 -7 10 9 18 9 33 1 17 -9 19 -8 13 8 -4 10 -1 21 6 26 10
6 8 8 -4 8 -10 0 -18 7 -18 15 0 8 -4 15 -10 15 -5 0 -10 -7 -10 -15z"/>
<path d="M1337 793 c-10 -9 -8 -55 2 -72 12 -19 41 -6 41 19 0 18 -11 25 -33
21 -5 -1 -7 4 -4 11 2 7 10 12 16 10 7 -1 10 2 6 8 -7 12 -19 13 -28 3z m33
-64 c0 -5 -4 -9 -10 -9 -5 0 -10 7 -10 16 0 8 5 12 10 9 6 -3 10 -10 10 -16z"/>
<path d="M1143 748 c-1 -35 0 -39 7 -18 11 34 12 60 2 60 -5 0 -9 -19 -9 -42z"/>
<path d="M1197 783 c-14 -14 -6 -45 13 -50 11 -3 17 -10 14 -15 -3 -5 -12 -7
-20 -4 -8 3 -14 1 -14 -4 0 -19 39 -10 45 11 14 42 -14 87 -38 62z m23 -25 c0
-16 -3 -19 -11 -11 -6 6 -8 16 -5 22 11 17 16 13 16 -11z"/>
<path d="M1267 783 c-14 -13 -6 -25 8 -13 21 18 20 -12 -1 -45 -16 -25 -16
-25 12 -24 21 0 24 2 12 7 -13 5 -15 11 -8 22 22 35 2 79 -23 53z"/>
<path d="M956 544 c-49 -7 -92 -17 -95 -20 -3 -4 11 -4 32 0 23 4 37 3 37 -4
0 -5 -7 -10 -16 -10 -11 0 -14 -6 -9 -20 5 -14 2 -20 -9 -20 -9 0 -16 5 -16
10 0 6 -5 10 -10 10 -6 0 -5 -8 2 -20 17 -27 36 -25 44 5 3 14 10 23 14 20 5
-3 6 -14 3 -25 -3 -11 -1 -20 4 -20 5 0 9 16 9 37 -1 53 22 54 27 1 l4 -43 1
48 c2 35 6 47 18 47 12 0 14 -7 9 -30 -4 -20 -3 -30 5 -30 9 0 9 -5 -1 -17
-13 -16 -12 -17 3 -5 9 8 22 11 27 8 6 -4 11 11 13 36 3 40 5 43 36 46 36 4
45 -15 10 -20 -28 -4 -36 -39 -13 -58 9 -8 15 -8 15 -2 0 6 -4 14 -10 17 -17
11 -11 35 9 35 14 0 21 -8 23 -27 3 -20 5 -14 8 20 l5 47 -45 -1 c-25 -1 -85
-7 -134 -15z m84 -28 c0 -14 -4 -28 -10 -31 -6 -4 -10 7 -10 24 0 17 5 31 10
31 6 0 10 -11 10 -24z"/>
<path d="M1208 535 c2 -14 9 -28 14 -31 5 -3 3 -13 -4 -22 -12 -16 -11 -16 6
-2 15 11 20 12 23 3 9 -25 18 -12 18 24 0 53 23 54 28 1 l4 -43 1 43 c2 40 22
62 22 23 0 -21 25 -45 38 -37 6 3 15 -1 22 -9 6 -7 18 -11 26 -8 8 3 15 -1 16
-8 0 -8 4 6 7 31 7 54 1 58 -109 59 -72 1 -76 0 -75 -21 0 -13 -4 -23 -10 -23
-5 0 -10 10 -10 23 1 12 -4 22 -11 22 -7 0 -9 -10 -6 -25z m172 1 c0 -18 -27
-39 -40 -31 -5 3 -10 15 -10 26 0 14 7 19 25 19 15 0 25 -6 25 -14z m40 -16
c0 -11 -7 -23 -15 -27 -21 -8 -30 3 -17 20 7 8 9 17 5 20 -3 4 1 7 10 7 10 0
17 -8 17 -20z"/>
<path d="M1548 525 c30 -7 56 -16 59 -18 10 -11 -8 -26 -24 -20 -13 5 -12 0 6
-25 12 -18 25 -32 28 -32 3 0 0 6 -6 13 -8 10 -7 21 2 40 18 39 27 33 29 -20
l1 -48 4 43 c5 56 26 51 34 -9 l6 -44 1 44 c2 42 3 43 30 37 27 -7 56 -35 46
-45 -3 -3 -9 1 -14 9 -8 13 -10 12 -10 -2 0 -10 -8 -18 -17 -18 -13 0 -14 -3
-5 -12 8 -8 15 -8 25 0 16 14 28 6 20 -14 -3 -8 -1 -14 4 -14 4 0 8 19 8 42 0
34 -6 48 -33 75 -36 36 -56 41 -69 18 -8 -13 -17 -13 -78 0 -85 18 -121 18
-47 0z m177 -15 c20 -23 17 -24 -20 -10 -14 5 -23 14 -20 20 9 15 20 12 40
-10z"/>
<path d="M1511 510 c-17 -10 -7 -38 16 -47 10 -4 21 -11 25 -17 4 -6 8 2 8 18
0 24 -2 27 -15 16 -12 -10 -19 -10 -28 -1 -9 9 -9 14 3 21 8 5 12 11 9 14 -2
3 -11 1 -18 -4z"/>
<path d="M675 476 c-84 -28 -101 -31 -113 -20 -18 19 -28 18 -52 -6 -18 -18
-20 -28 -14 -73 9 -67 14 -73 14 -15 0 28 5 48 13 51 7 3 4 6 -7 6 -15 1 -16
4 -6 16 14 16 50 21 50 6 0 -5 -6 -12 -12 -15 -7 -3 -2 -3 12 0 24 5 26 2 28
-33 4 -54 12 -54 12 0 0 25 5 49 10 52 6 3 10 -4 10 -18 0 -30 10 -40 26 -26
10 8 18 7 29 -5 13 -12 21 -13 36 -6 10 6 19 16 19 22 0 7 5 6 15 -2 18 -15
19 -7 3 20 -11 17 -10 22 2 30 24 15 29 12 32 -22 3 -26 5 -21 8 20 3 31 1 52
-5 52 -5 0 -55 -15 -110 -34z m105 17 c0 -5 -14 -16 -31 -26 -19 -10 -29 -23
-26 -31 3 -8 -2 -21 -12 -30 -17 -15 -19 -15 -32 0 -11 14 -11 18 6 30 10 8
22 14 27 14 4 0 8 6 8 14 0 12 19 23 58 35 1 1 2 -2 2 -6z m-91 -41 c-28 -20
-41 -21 -46 -6 -3 10 57 35 66 27 3 -2 -6 -11 -20 -21z m-39 -32 c0 -5 -4 -10
-10 -10 -5 0 -10 5 -10 10 0 6 5 10 10 10 6 0 10 -4 10 -10z"/>
<path d="M1850 480 c6 -11 13 -20 16 -20 2 0 0 9 -6 20 -6 11 -13 20 -16 20
-2 0 0 -9 6 -20z"/>
<path d="M1705 460 c3 -5 10 -10 16 -10 5 0 9 5 9 10 0 6 -7 10 -16 10 -8 0
-12 -4 -9 -10z"/>
<path d="M1818 456 c12 -5 22 -18 22 -27 0 -19 -26 -33 -35 -19 -3 4 1 10 7
13 7 2 10 8 5 12 -4 5 -12 4 -19 -3 -13 -13 6 -42 27 -42 8 0 16 -6 18 -12 3
-7 6 4 6 25 1 54 21 45 22 -10 l2 -48 7 45 c9 54 8 56 -27 63 -16 3 -35 7 -43
9 -8 2 -5 0 8 -6z"/>
<path d="M1905 420 c-3 -5 -3 -16 2 -22 4 -7 8 -19 8 -27 0 -8 9 -19 20 -25
11 -6 23 -15 27 -21 4 -5 8 7 8 28 0 40 5 43 45 25 32 -14 32 -27 0 -20 -29 5
-33 -14 -9 -44 14 -18 15 -18 4 4 -13 28 -9 35 14 26 10 -4 16 -18 16 -37 0
-43 12 -26 14 21 2 38 0 41 -41 61 -55 27 -61 26 -56 -3 6 -27 -13 -44 -30
-27 -9 9 -8 14 3 21 13 9 13 10 0 10 -12 0 -13 2 -1 9 7 5 10 14 7 20 -9 14
-23 14 -31 1z"/>
<path d="M544 404 c-13 -5 -6 -51 8 -60 6 -4 7 2 3 15 -4 13 -1 28 5 36 12 15
6 18 -16 9z"/>
<path d="M435 380 c-34 -17 -27 -19 13 -3 15 6 16 -13 1 -23 -8 -4 -7 -9 2
-15 22 -14 24 -11 24 26 0 19 0 35 0 35 0 0 -18 -9 -40 -20z"/>
<path d="M418 308 c22 -22 22 -22 39 -3 14 14 14 16 2 7 -13 -10 -19 -9 -29 3
-7 8 -17 15 -23 15 -6 0 -1 -10 11 -22z"/>
<path d="M1276 2144 c-3 -9 -5 -30 -5 -47 1 -24 3 -26 6 -9 2 12 9 22 14 22
12 0 12 37 0 44 -5 3 -12 -1 -15 -10z"/>
<path d="M1130 2134 c0 -14 -3 -14 -15 -4 -19 16 -19 12 3 -34 l19 -38 0 46
c1 25 -1 46 -3 46 -2 0 -4 -7 -4 -16z"/>
<path d="M1201 2113 c-1 -23 3 -44 7 -47 4 -2 6 12 4 32 -5 56 -10 62 -11 15z"/>
<path d="M1231 2128 c0 -13 4 -32 9 -43 7 -15 9 -10 9 23 1 23 -3 42 -9 42 -5
0 -10 -10 -9 -22z"/>
<path d="M1312 2125 c-14 -31 -15 -55 -3 -55 9 0 26 69 18 76 -2 2 -9 -7 -15
-21z"/>
<path d="M1357 2143 c-3 -5 -7 -24 -9 -43 -2 -28 1 -35 16 -38 10 -2 22 2 27
10 14 22 10 65 -7 72 -20 8 -22 8 -27 -1z m29 -47 c-3 -14 -11 -26 -16 -26
-11 0 -13 30 -4 55 10 26 28 1 20 -29z"/>
<path d="M1426 2113 c-4 -16 -9 -37 -13 -48 -3 -14 -2 -17 5 -10 11 11 28 85
19 85 -3 0 -8 -12 -11 -27z"/>
<path d="M1035 2120 c-4 -6 -4 -24 0 -40 5 -23 12 -30 31 -30 25 0 28 7 18 34
-3 9 -10 13 -16 10 -5 -3 -4 -11 3 -20 9 -11 8 -14 -5 -14 -9 0 -16 3 -16 8 0
4 -3 18 -7 31 -5 21 -3 23 15 19 12 -4 22 -2 22 3 0 12 -37 11 -45 -1z"/>
<path d="M1461 2084 c-21 -35 -21 -35 -1 -29 11 4 20 2 20 -4 0 -6 5 -11 10
-11 6 0 10 18 10 40 0 49 -12 51 -39 4z m21 -6 c-7 -7 -12 -8 -12 -2 0 6 3 14
7 17 3 4 9 5 12 2 2 -3 -1 -11 -7 -17z"/>
<path d="M965 2100 c-12 -20 5 -70 25 -70 25 0 31 11 21 46 -8 30 -34 44 -46
24z m33 -25 c7 -14 12 -28 12 -30 0 -8 -30 -5 -30 3 0 4 -3 17 -6 30 -9 30 10
28 24 -3z"/>
<path d="M1526 2064 c-9 -20 -15 -39 -12 -42 3 -2 10 7 15 22 14 35 24 33 16
-4 -9 -42 12 -39 31 5 18 44 18 58 -1 25 l-14 -25 -1 28 c0 37 -13 34 -34 -9z"/>
<path d="M901 2072 c-1 -18 28 -72 39 -72 5 0 12 5 15 10 3 6 0 10 -8 10 -7 0
-21 15 -30 33 -8 17 -16 26 -16 19z"/>
<path d="M841 2046 c-22 -26 28 -91 51 -68 9 9 8 20 -5 47 -18 38 -28 43 -46
21z m33 -21 c20 -31 10 -58 -11 -30 -12 17 -18 55 -9 55 2 0 11 -11 20 -25z"/>
<path d="M1635 2040 c-3 -5 -3 -21 1 -35 4 -15 2 -25 -4 -25 -6 0 -13 8 -15
18 -4 16 -5 16 -6 -1 -1 -21 26 -34 41 -19 7 7 6 16 -1 30 -7 12 -7 23 -2 26
5 4 11 0 14 -6 2 -7 8 -10 12 -6 10 9 -3 28 -20 28 -8 0 -16 -4 -20 -10z"/>
<path d="M804 1998 c8 -13 14 -27 13 -33 -1 -5 6 -11 16 -13 16 -3 16 0 -5 32
-13 20 -26 36 -31 36 -4 0 -1 -10 7 -22z"/>
<path d="M1685 1986 c-17 -26 -15 -56 4 -56 5 0 13 5 17 12 5 8 2 9 -9 5 -23
-9 -22 15 1 36 20 19 37 23 27 7 -3 -5 -1 -10 5 -10 17 0 6 24 -13 28 -9 2
-23 -8 -32 -22z"/>
<path d="M760 1994 c0 -12 42 -65 48 -60 2 3 -1 12 -8 21 -10 12 -10 15 1 15
9 1 8 5 -5 15 -21 16 -36 19 -36 9z"/>
<path d="M738 1958 c17 -22 -3 -35 -25 -16 -14 11 -15 11 -6 -7 14 -25 53 -61
53 -49 0 6 -5 15 -12 22 -17 17 -2 27 17 12 30 -25 24 -3 -7 26 -18 16 -27 22
-20 12z"/>
<path d="M1739 1938 c-12 -18 -16 -27 -9 -20 23 20 33 14 25 -15 -6 -28 -6
-27 23 7 31 36 35 53 7 30 -20 -17 -32 -5 -15 15 8 9 8 15 2 15 -6 0 -21 -15
-33 -32z"/>
<path d="M653 1904 c-8 -22 38 -67 60 -58 18 7 24 34 7 34 -5 0 -9 -3 -9 -7 4
-23 -4 -24 -26 -3 -22 21 -26 48 -4 35 5 -4 9 -1 9 4 0 17 -30 13 -37 -5z"/>
<path d="M1797 1892 c-21 -22 -24 -31 -15 -40 18 -18 35 -14 57 14 16 21 18
30 10 40 -16 19 -22 18 -52 -14z m43 0 c0 -14 -39 -46 -47 -39 -3 4 2 16 12
27 19 21 35 26 35 12z"/>
<path d="M611 1856 c-9 -10 -4 -19 23 -39 31 -24 35 -25 47 -10 12 14 11 15
-9 9 -16 -6 -22 -3 -22 8 0 9 -6 15 -12 14 -7 -2 -12 5 -12 15 2 21 0 21 -15
3z"/>
<path d="M1843 1836 c-27 -24 -27 -26 -11 -42 17 -17 19 -17 48 11 23 22 27
32 19 42 -16 18 -24 17 -56 -11z m47 1 c0 -14 -39 -41 -48 -33 -6 7 27 46 40
46 4 0 8 -6 8 -13z"/>
<path d="M573 1809 c-16 -16 -17 -33 -2 -24 5 4 18 0 27 -7 26 -23 42 -30 42
-20 0 5 -11 15 -25 22 -13 7 -25 19 -27 27 -2 11 -5 12 -15 2z"/>
<path d="M1891 1782 c-32 -26 -32 -28 -15 -42 15 -12 16 -12 9 -1 -6 10 0 21
20 37 16 13 27 25 24 28 -3 3 -20 -7 -38 -22z"/>
<path d="M516 1725 c-8 -21 -10 -18 31 -39 39 -19 54 -21 28 -3 -12 9 -15 19
-10 28 8 12 6 12 -8 0 -15 -12 -18 -10 -25 9 -8 21 -9 21 -16 5z"/>
<path d="M1931 1703 c-15 -12 -20 -24 -16 -36 9 -22 13 -21 53 3 19 11 32 26
29 33 -6 19 -42 19 -66 0z m49 -3 c0 -10 -32 -30 -49 -30 -19 0 -12 17 12 28
28 14 37 14 37 2z"/>
<path d="M484 1658 c-10 -16 34 -50 60 -46 31 4 31 32 1 46 -33 15 -52 15 -61
0z m51 -10 c25 -11 34 -28 14 -28 -17 0 -49 20 -49 30 0 13 4 12 35 -2z"/>
<path d="M1973 1644 c-33 -14 -47 -32 -16 -20 9 4 20 1 25 -6 5 -10 8 -8 8 5
0 14 5 17 20 12 15 -5 18 -3 14 9 -7 19 -9 19 -51 0z"/>
<path d="M451 1558 c-1 -9 12 -20 30 -27 42 -14 46 -14 53 5 4 12 1 14 -14 9
-15 -5 -20 -2 -21 12 0 10 -3 13 -6 6 -2 -7 -11 -13 -18 -13 -7 0 -16 6 -18
13 -4 7 -6 6 -6 -5z"/>
<path d="M1993 1560 c-32 -13 -29 -18 10 -15 47 4 47 4 47 15 0 12 -27 12 -57
0z"/>
<path d="M1993 1533 c-19 -7 -16 -23 5 -24 14 0 14 -2 -3 -9 -30 -13 6 -13 39
0 31 11 35 30 5 23 -12 -3 -24 -1 -28 4 -3 6 -12 8 -18 6z"/>
<path d="M436 1504 c-10 -27 -7 -29 38 -29 25 0 42 3 40 7 -3 5 -14 8 -24 8
-10 0 -25 7 -33 15 -13 13 -16 13 -21 -1z"/>
<path d="M2023 1473 c-18 -2 -33 -9 -33 -14 0 -12 60 -2 75 12 6 6 6 8 0 7 -6
0 -25 -3 -42 -5z"/>
<path d="M430 1439 c0 -5 10 -9 23 -9 12 0 28 -4 36 -9 21 -13 -4 -24 -39 -16
-19 4 -30 3 -30 -4 0 -18 80 -13 87 4 3 9 3 18 0 21 -11 11 -77 22 -77 13z"/>
<path d="M2010 1431 c-24 -7 -23 -8 10 -13 38 -6 60 -1 60 13 0 10 -34 10 -70
0z"/>
<path d="M2010 1400 c-23 -14 -4 -23 36 -16 20 4 34 9 33 10 -12 10 -56 14
-69 6z"/>
<path d="M417 1351 c-3 -12 -1 -24 4 -27 5 -3 9 0 9 5 0 6 17 12 38 13 l37 1
-35 4 c-19 3 -38 9 -41 15 -3 5 -9 0 -12 -11z"/>
<path d="M2000 1338 c0 -21 1 -21 14 -3 13 18 13 18 24 -1 10 -17 11 -17 12
-1 0 20 16 23 23 5 2 -7 8 -10 12 -6 15 14 -8 28 -46 28 -33 0 -39 -3 -39 -22z"/>
<path d="M420 1290 c0 -6 15 -9 35 -7 51 5 55 17 7 17 -23 0 -42 -5 -42 -10z"/>
<path d="M2004 1285 c-3 -8 -3 -19 1 -25 9 -15 35 -12 41 5 4 8 11 15 16 15 6
0 8 -7 4 -15 -3 -8 -1 -15 3 -15 16 0 20 28 6 40 -11 9 -18 7 -31 -9 -10 -11
-21 -18 -26 -15 -5 3 -4 12 3 20 9 10 9 14 0 14 -6 0 -14 -7 -17 -15z"/>
<path d="M422 1235 c0 -16 2 -24 5 -17 2 6 20 12 39 12 19 0 34 5 34 11 0 7
-12 9 -34 5 -23 -5 -36 -3 -39 6 -3 7 -5 0 -5 -17z"/>
<path d="M1990 1230 c0 -8 34 -20 59 -20 21 0 8 9 -28 20 -17 5 -31 5 -31 0z"/>
<path d="M470 1181 c-13 -26 -35 -28 -25 -3 5 13 3 14 -6 5 -13 -13 -6 -43 10
-43 6 0 18 11 27 25 9 14 20 22 26 19 5 -3 4 -12 -4 -22 -11 -13 -11 -14 2
-10 20 6 19 42 -2 46 -9 2 -22 -6 -28 -17z"/>
<path d="M1977 1134 c-13 -13 -7 -42 9 -48 29 -11 62 -6 68 11 7 16 -8 33 -31
33 -6 0 -18 2 -25 5 -8 3 -17 2 -21 -1z m58 -25 c4 -6 5 -13 2 -15 -7 -8 -57
7 -57 17 0 13 47 11 55 -2z"/>
<path d="M468 1123 c-10 -2 -18 -9 -18 -14 0 -6 7 -6 19 1 14 7 21 6 24 -3 3
-9 10 -7 23 6 18 16 17 17 -6 16 -14 -1 -33 -3 -42 -6z"/>
<path d="M459 1084 c-9 -11 -7 -14 7 -14 27 0 64 11 64 19 0 12 -60 8 -71 -5z"/>
<path d="M1973 1056 c20 -16 8 -30 -17 -20 -9 3 -16 3 -16 0 0 -10 71 -38 78
-32 2 3 -3 8 -12 12 -22 9 -9 26 15 19 33 -11 21 5 -16 21 -43 18 -56 18 -32
0z"/>
<path d="M495 1045 c-16 -7 -23 -14 -15 -14 8 0 26 6 40 14 32 18 14 18 -25 0z"/>
<path d="M530 989 c-19 -10 -31 -18 -27 -19 5 0 18 5 30 11 21 11 21 10 -2
-15 -32 -34 -20 -44 24 -21 19 11 33 21 30 23 -2 2 -14 -2 -27 -9 l-23 -12 23
26 c30 32 17 40 -28 16z"/>
<path d="M1937 990 c4 -15 0 -20 -13 -21 -11 -1 -1 -7 21 -14 63 -20 70 -4 16
35 -29 20 -29 20 -24 0z m28 -20 c3 -5 1 -10 -4 -10 -6 0 -11 5 -11 10 0 6 2
10 4 10 3 0 8 -4 11 -10z"/>
<path d="M567 914 c-32 -37 -24 -42 33 -22 31 10 32 12 12 19 -14 5 -20 14
-16 24 9 22 2 18 -29 -21z m23 -8 c0 -3 -4 -8 -10 -11 -5 -3 -10 -1 -10 4 0 6
5 11 10 11 6 0 10 -2 10 -4z"/>
<path d="M1915 923 c19 -15 19 -15 -7 -9 -36 8 -36 -7 1 -33 37 -27 54 -27 21
-1 l-25 20 33 -6 c40 -8 41 6 3 29 -36 21 -53 22 -26 0z"/>
<path d="M600 860 c-14 -10 -22 -21 -19 -24 2 -3 18 6 34 19 35 29 22 33 -15
5z"/>
<path d="M1843 864 c-4 -10 4 -24 23 -39 25 -20 31 -22 43 -10 13 13 12 18 -9
40 -27 29 -48 32 -57 9z m56 -24 c6 0 11 -4 11 -10 0 -5 -7 -10 -15 -10 -8 0
-15 5 -15 10 0 6 -7 10 -15 10 -16 0 -20 12 -8 24 4 4 13 0 19 -8 6 -9 16 -16
23 -16z"/>
<path d="M622 827 c-20 -21 -20 -25 -8 -43 14 -18 15 -18 45 10 23 23 28 33
20 43 -16 19 -33 16 -57 -10z m48 5 c0 -14 -39 -46 -47 -39 -3 4 2 16 12 27
19 21 35 26 35 12z"/>
<path d="M1816 816 c3 -9 -2 -16 -13 -18 -14 -2 -10 -8 17 -25 45 -28 55 -20
27 22 -22 35 -41 47 -31 21z m19 -26 c3 -5 1 -10 -4 -10 -6 0 -11 5 -11 10 0
6 2 10 4 10 3 0 8 -4 11 -10z"/>
<path d="M672 777 c-31 -33 -27 -45 4 -16 l27 24 -16 -31 c-22 -42 -10 -50 25
-17 35 34 37 55 2 22 l-27 -24 17 33 c20 40 2 45 -32 9z"/>
<path d="M1751 766 c-14 -16 -4 -43 24 -66 13 -11 19 -11 32 2 14 14 13 19 -8
47 -26 35 -32 37 -48 17z m43 -31 c13 -19 13 -25 3 -25 -17 0 -37 20 -37 37 0
21 16 15 34 -12z"/>
<path d="M730 725 c-13 -14 -21 -27 -18 -30 2 -3 15 6 28 20 13 14 21 27 18
30 -2 3 -15 -6 -28 -20z"/>
</g>
</svg>
